<svg xmlns="http://www.w3.org/2000/svg" xmlns:xlink="http://www.w3.org/1999/xlink" width="50" height="50" id="building"><defs><linearGradient id="b" x1="1073.403" x2="1097.116" y1="516.451" y2="544.308" gradientTransform="translate(-1754.872 541.343) scale(1.53785)" gradientUnits="userSpaceOnUse" xlink:href="#a"></linearGradient><linearGradient id="a"><stop offset="0" stop-color="#16ff6a"></stop><stop offset="1" stop-color="#0090a5"></stop></linearGradient></defs><g transform="translate(111 -1334.362)"><rect width="48" height="48" x="-111" y="1334.362" fill="url(#b)" rx="10.144" ry="10.144"></rect><path fill="#fff" style="line-height:normal;-inkscape-font-specification:Sans;text-indent:0;text-align:start;text-decoration-line:none;text-transform:none;block-progression:tb;marker:none" d="M-94.763 1342.889c-.678 0-1.31.305-1.782.781-.188-.068-.36-.156-.562-.156-.79 0-1.35.586-1.563 1.313-.057-.01-.097-.063-.156-.063-.506 0-.886.312-1.094.75-.794.165-1.437.785-1.437 1.626 0 .96.789 1.75 1.75 1.75h6.25c.96 0 1.75-.79 1.75-1.75 0-.542-.299-.993-.688-1.313.024-.139.063-.265.063-.406 0-1.367-1.165-2.531-2.531-2.531zm20.968.563c-.443 0-.79.286-1.125.562-.158-.063-.327-.125-.5-.125-.556 0-.915.366-1.125.844h-.03c-.26 0-.351.283-.532.437-.007.01-.025-.01-.031 0-.744 0-1.344.6-1.344 1.344 0 .743.6 1.375 1.344 1.375h4.312c.743 0 1.344-.632 1.344-1.375 0-.335-.297-.513-.5-.75.033-.142.062-.291.062-.438a1.879 1.879 0 0 0-1.875-1.875zm-10.187.437v1h4v-1zm5 0v1h1v-1zm-9 2v1h1v-1zm2 0v1h1v-1zm2 0v1h1v-1zm-17 4v1h1v-1zm2 0v1h1v-1zm2 0v1h3v-1zm7 0h7v5.5h-1v18h-6v-15h.5a.52.52 0 0 0 .5-.5v-2a.52.52 0 0 0-.5-.5h-.5zm8 4.5h3v1h-3zm-15 2h7v1h-7zm14 0h5v17h-5zm1 1v1h1v-1zm2 0v1h1v-1zm-16 1h5v15h-5zm1 1v1h3v-1zm13 0v1h1v-1zm2 0v1h1v-1zm-15 2v1h3v-1zm13 0v1h1v-1zm2 0v1h1v-1zm-15 2v1h3v-1zm13 0v1h1v-1zm2 0v1h1v-1zm-15 2v1h3v-1zm13 0v1h1v-1zm2 0v1h1v-1zm-15 2v1h3v-1zm13 0v1h1v-1zm2 0v1h1v-1zm-15 2v1h3v-1zm13 0v1h1v-1zm2 0v1h1v-1zm-15 2v1h3v-1zm13 0v1h1v-1zm2 0v1h1v-1z" color="#000" font-family="Sans" font-weight="400" overflow="visible"></path></g></svg>